# xmcd
#
# Track frame offsets: 
#        182
#        17452
#        41365
#        61870
#        82610
#        103980
#        126335
#        152367
#        176970
#        193910
#        216132
#        233660
#
# Disc length: 3366 seconds
#
# Revision: 6
# Processed by: cddbd v1.5.2PL0 Copyright (c) Steve Scherf et al.
# Submitted via: ExactAudioCopyFreeDBPlugin 1.0
#
DISCID=940d240c
DTITLE=Various Artist - New Jack Swing Mastercuts Volume 4
DYEAR=1995
DGENRE=R&B
TTITLE0=Basic Black - She's Mine (Original LP Version)
TTITLE1=ARB - New Jack City (Original LP Version)
TTITLE2=Bell Biv Devoe - Do Me (Original LP Version)
TTITLE3=Jodeci - It's Alright (Original LP Version)
TTITLE4=Guy - Wanna Get With U (Original LP Version)
TTITLE5=Father MC - Lisa Baby (Original LP Version)
TTITLE6=Heavy D and The Boyz - We've Got Our Own Thang (Original 12" US 
TTITLE6=Mix)
TTITLE7=Jeff Redd - I Found Lovin' (Original LP Version)
TTITLE8=Joe - I'm In Luv (Original LP Version)
TTITLE9=SWV feat. Wu Tang Clan - Anything (Original 12" Old Skool Mix)
TTITLE10=Redhead Kingpin and The FBI - Do The Right Thing (Original LP V
TTITLE10=ersion)
TTITLE11=Tamrock - Listen Closely (Bozack) (Original LP Version)
EXTD=YEAR: 1995
EXTT0=
EXTT1=
EXTT2=
EXTT3=
EXTT4=
EXTT5=
EXTT6=
EXTT7=
EXTT8=
EXTT9=
EXTT10=
EXTT11=
PLAYORDER=
